# xmcd
#
# Track frame offsets:
#	150
#	18264
#	35992
#	51222
#	66201
#	86771
#	102869
#	118012
#	132821
#	146136
#	159281
#	172399
#	186063
#	202372
#	218570
#	236558
#	252795
#	268448
#	285512
#
# Disc length: 4035 seconds
#
# Revision: 0
# Processed by: cddbd v1.5.2PL0 Copyright (c) Steve Scherf et al.
# Submitted via: audiograbber 1.83.01
#
DISCID=270fc113
DTITLE=Various Artists - Country - May '13
DYEAR=2013
DGENRE=Country
TTITLE0=1994 - Jason Aldean
TTITLE1=Beat This Summer - Brad Paisley
TTITLE2=Done - The Band Perry
TTITLE3=Hey Girl - Billy Currington
TTITLE4=Highway Don't Care - Tim McGraw &Taylor Swift
TTITLE5=Thank A Farmer - James Wesley
TTITLE6=Hush Hush - Pistol Annies
TTITLE7=The Simple Life - Drake White
TTITLE8=Whiskey Please - Wheeler Sisters
TTITLE9=Stop Drop And Roll - Tracy Lawrence
TTITLE10=Blowin' Smoke - Kacey Musgraves
TTITLE11=The Good Life - Casey James
TTITLE12=Easy - Sheryl Crow
TTITLE13=Lucky Sometimes - Weston Burt
TTITLE14=Better - Maggie Rose
TTITLE15=I Cry For Love - Carrie Rodriguez
TTITLE16=The Only Drug - JB and The Moonshine Band
TTITLE17=When A Woman Loves A Man - Paul Kelly
TTITLE18=Two Black Cadillacs (Live Version) - Carrie Underwood
EXTD=Promo Only Country Series
EXTT0=
EXTT1=
EXTT2=
EXTT3=
EXTT4=
EXTT5=
EXTT6=
EXTT7=
EXTT8=
EXTT9=
EXTT10=
EXTT11=
EXTT12=
EXTT13=
EXTT14=
EXTT15=
EXTT16=
EXTT17=
EXTT18=
PLAYORDER=
